<svg xmlns="http://www.w3.org/2000/svg" xmlns:xlink="http://www.w3.org/1999/xlink" version="1.1" x="0px" y="0px" width="100px" height="100px" viewBox="0 0 100 100" enable-background="new 0 0 100 100" xml:space="preserve">
<g id="Captions">
</g>
<g id="Your_Icon">
	<path d="M81.376,13.443c1.255-1.423,2.751-2.624,4.116-3.941l8.368-7.747c1.481-1.37,3.8-1.275,5.17,0.2   c1.333,1.444,1.286,3.679-0.095,5.06l-0.232,0.231l-7.746,7.758c-1.26,1.317-2.641,2.508-3.805,3.931l-3.604,4.163   c-2.361,2.814-4.901,5.439-7.104,8.39l-6.776,8.706c-2.214,2.93-4.301,5.966-6.456,8.948c-2.182,2.962-4.174,6.061-6.224,9.117   c-4.09,6.092-7.989,12.426-11.615,18.655l-0.337,0.495c-1.612,2.393-4.858,3.025-7.251,1.412c-0.712-0.474-1.275-1.117-1.666-1.823   L19.002,45.737c-0.97-1.771-0.321-4.005,1.455-4.975c1.665-0.906,3.741-0.38,4.79,1.148L40.63,64.477   c2.655-4.016,5.354-7.968,8.189-11.856c2.224-3.046,4.379-6.135,6.734-9.085c2.329-2.973,4.585-5.998,6.973-8.917l7.304-8.664   c2.366-2.94,5.122-5.575,7.662-8.379L81.376,13.443z M5.396,99.216c-2.983,0-5.396-2.413-5.396-5.396V15.183   c0-2.982,2.413-5.396,5.396-5.396h72.018l-3.915,4.163c-0.87,0.959-1.766,1.897-2.661,2.836c-1.196,1.254-2.366,2.519-3.489,3.794   H10.792v67.845h67.844V37.453l2.129-2.74c1.328-1.771,2.788-3.426,4.248-5.069c0.896-1.022,1.797-2.034,2.613-3.015l1.803-2.087   v69.277c0,2.983-2.414,5.396-5.396,5.396H5.396z"/>
</g>
</svg>