<svg xmlns="http://www.w3.org/2000/svg" xmlns:xlink="http://www.w3.org/1999/xlink" version="1.1" id="Layer_2" x="0px" y="0px" width="100px" height="83px" viewBox="0 0 100 83" enable-background="new 0 0 100 83" xml:space="preserve">
<path d="M66,81c-4-1-5-4-5-8v-1H50H39v1c0,4-1,7-5,8c-0.97,0.242-1,2,0,2h16h16C67,83,66.971,81.242,66,81z"/>
<path d="M64.82,0L49.275,15.663l11.093,5.913L44.78,38.71l5.142-14.017l-11.369-4.372L47.761,0 M2.5,0  C1.184,0,0.116,1.021,0.019,2.312L0,66.5C0,67.881,1.119,69,2.5,69h95c1.381,0,2.5-1.119,2.5-2.5L99.98,2.312  C99.884,1.021,98.816,0,97.5,0 M96,57H4V4h38.603l-8.054,17.995l11.539,4.438l-9.404,25.634l28.499-31.326l-10.95-5.836L64.949,4H96  V57z"/>
</svg>