<svg xmlns="http://www.w3.org/2000/svg" xmlns:xlink="http://www.w3.org/1999/xlink" version="1.1" id="Layer_1" x="0px" y="0px" width="100px" height="71.938px" viewBox="0 0 100 71.938" enable-background="new 0 0 100 71.938" xml:space="preserve">
<g>
	<path fill="#000000" d="M45.771,42.755H29.808c0.724-4.378,3.055-12.956,10.446-20.163l3.516,9.847   c0.303,0.846,1.104,1.411,2.001,1.411h15.812c1.173,0,2.125-0.952,2.125-2.125s-0.952-2.124-2.125-2.124H47.268l-4.216-11.812   c-0.051-0.145-0.119-0.279-0.196-0.405c-0.096-0.184-0.208-0.363-0.347-0.528c-1.011-1.198-2.796-1.35-3.991-0.343   C24.238,28.537,23.831,44.856,23.819,45.545c-0.011,0.759,0.282,1.489,0.814,2.03c0.533,0.54,1.259,0.845,2.018,0.845h16.286   v15.342c0,1.563,1.268,2.832,2.833,2.832c1.563,0,2.832-1.269,2.832-2.832V45.588C48.603,44.024,47.334,42.755,45.771,42.755z"/>
	<circle fill="#000000" cx="48.603" cy="11.54" r="6.196"/>
	<path fill="#000000" d="M66.068,36.677h-8.143c-0.783,0-1.417,0.634-1.417,1.416c0,0.783,0.634,1.416,1.417,1.416h8.143   c0.783,0,1.416-0.633,1.416-1.416C67.484,37.311,66.852,36.677,66.068,36.677z"/>
	<path fill="#000000" d="M74.957,27.92c-0.125-0.259-0.331-0.44-0.561-0.577l6.399-14.886l-3.904-1.678l-9.284,21.6l3.904,1.678   l1.535-3.572l2.981,6.193h-4.295c-0.783,0-1.416,0.634-1.416,1.416c0,0.783,0.633,1.416,1.416,1.416h6.55   c0.486,0,0.94-0.25,1.199-0.662s0.287-0.93,0.077-1.368L74.957,27.92z"/>
</g>
</svg>