<svg xmlns="http://www.w3.org/2000/svg" xmlns:xlink="http://www.w3.org/1999/xlink" version="1.1" x="0px" y="0px" width="100px" height="100px" viewBox="0 0 100 100" enable-background="new 0 0 100 100" xml:space="preserve">
<g id="Captions">
</g>
<g id="Your_Icon">
	<path d="M68.09,95.444H31.909c-4.264,0-10.088-3.363-12.221-7.056L1.599,57.056c-2.132-3.692-2.132-10.419,0-14.111l18.09-31.333   c2.133-3.692,7.957-7.056,12.221-7.056H68.09c4.264,0,10.088,3.363,12.221,7.056l18.091,31.333c2.132,3.692,2.132,10.419,0,14.111   L80.311,88.389C78.178,92.081,72.354,95.444,68.09,95.444L68.09,95.444z M71.748,66.367v-5.346v-1.019v-9.842v-3.136V32.528   c-0.003-2.126-1.725-3.847-3.85-3.851c-2.125,0.004-3.846,1.722-3.853,3.847l0.001,17.637c0,0.278-0.127,0.524-0.323,0.69   c-0.158,0.136-0.362,0.22-0.587,0.22c-0.351,0-0.653-0.201-0.804-0.493c-0.064-0.125-0.105-0.266-0.105-0.417V32.528   c0-0.004,0-0.01,0-0.014v-3.624c-0.004-2.127-1.724-3.847-3.851-3.851c-2.127,0.004-3.847,1.724-3.852,3.851v21.271h0.001   c0,0.503-0.407,0.91-0.909,0.91c-0.503,0-0.91-0.407-0.91-0.91v-9.515V21.614c-0.004-2.126-1.725-3.847-3.851-3.851   c-2.126,0.004-3.848,1.725-3.851,3.851v7.27c0,0.002,0,0.005,0,0.007v21.271c0,0.001,0,0.001,0,0.001   c0,0.217-0.079,0.414-0.207,0.57c-0.167,0.206-0.418,0.339-0.703,0.339c-0.326,0-0.61-0.173-0.771-0.432   c-0.087-0.139-0.139-0.302-0.139-0.478v-0.001V28.891c-0.004-2.127-1.725-3.847-3.851-3.852c-2.127,0.005-3.847,1.725-3.852,3.852   v18.134l0.001,0.001v3.136l0,0c0,0.001,0,0.002,0,0.002v9.838l0.011,5.098c0,0.406-0.271,0.766-0.661,0.877   c-0.392,0.111-0.812-0.053-1.023-0.398l-8.251-13.434c-0.729-1.184-1.989-1.833-3.285-1.835c-0.688,0.001-1.381,0.184-2.013,0.572   c-1.185,0.728-1.833,1.988-1.835,3.284c0.001,0.688,0.183,1.381,0.572,2.013l7.776,12.646c0.001,0.001,0.001,0.001,0.002,0.003   l2.798,4.55l0.488,0.794c2.37,3.854,6.405,6.049,10.608,6.236l11.121,0.01l6.836,0.001c3.625-0.001,6.899-1.468,9.276-3.843   c2.376-2.377,3.842-5.651,3.842-9.277V66.367z"/>
</g>
</svg>