<?xml version="1.0" encoding="utf-8"?>
<!-- Generator: Adobe Illustrator 15.1.0, SVG Export Plug-In . SVG Version: 6.00 Build 0)  -->
<!DOCTYPE svg PUBLIC "-//W3C//DTD SVG 1.1//EN" "http://www.w3.org/Graphics/SVG/1.1/DTD/svg11.dtd">
<svg version="1.1" id="Layer_1" xmlns="http://www.w3.org/2000/svg" xmlns:xlink="http://www.w3.org/1999/xlink" x="0px" y="0px"
	 width="100px" height="100px" viewBox="0 0 100 100" enable-background="new 0 0 100 100" xml:space="preserve">
<path d="M80.944,16C81.908,6.669,82,0,82,0H18.001c0,0,0.091,6.669,1.056,16C12.352,16,0,16,0,16v3
	c0,36.992,26.842,46.346,35.799,48.435c3.146,3.326,6.846,5.603,11.201,6.321V81c0,7-15,13-21,13c-1.656,0-3,1.344-3,3s1.344,3,3,3
	h24h24c1.656,0,3-1.344,3-3s-1.344-3-3-3c-6,0-21-6-21-13v-7.244c4.355-0.719,8.057-2.994,11.203-6.321
	C73.162,65.344,100,55.99,100,19v-3C100,16,86.229,16,80.944,16z M6.066,22h13.697c1.598,12.098,4.637,26.756,10.402,37.428
	C20.676,55.47,7.123,45.693,6.066,22z M55.729,26.102L59.271,37L50,30.265L40.729,37l3.541-10.898L35,19.367h11.459L50,8.469
	l3.541,10.898H65L55.729,26.102z M69.836,59.428c5.766-10.672,8.805-25.331,10.4-37.428h13.697
	C92.877,45.693,79.324,55.471,69.836,59.428z"/>
</svg>
