<svg xmlns="http://www.w3.org/2000/svg" xmlns:xlink="http://www.w3.org/1999/xlink" version="1.1" id="Layer_1" x="0px" y="0px" width="100px" height="100px" viewBox="0 0 100 100" enable-background="new 0 0 100 100" xml:space="preserve">
<path d="M50.925,29.595c-11.676,0-21.174,9.498-21.174,21.171c0,7.029,4.412,12.687,7.329,16.433  c0.47,0.602,0.905,1.158,1.274,1.664c1.859,2.543,1.628,4.439,1.628,4.459l0.089,0.881c-0.682,0.846-1.103,1.916-1.103,3.113  c0,1.215,0.421,2.344,1.194,3.234c-0.773,0.893-1.194,2.021-1.194,3.238c0,2.648,1.986,4.727,4.571,4.9  c-0.062,0.236-0.104,0.482-0.104,0.738c0,1.648,1.338,2.986,2.986,2.986s2.984-1.338,2.984-2.986c0-0.244-0.037-0.479-0.092-0.707  h3.918c-0.057,0.229-0.094,0.463-0.094,0.707c0,1.648,1.336,2.986,2.984,2.986c1.65,0,2.988-1.338,2.988-2.986  c0-0.244-0.039-0.479-0.092-0.707h0.037c2.754,0,4.91-2.166,4.91-4.932c0-1.217-0.42-2.346-1.193-3.238  c0.773-0.891,1.193-2.018,1.193-3.234c0-1.049-0.311-2.008-0.846-2.799l-0.068-1.326c-0.002-0.018-0.264-1.686,1.57-5.377  c0.662-1.332,1.545-2.658,2.477-4.061c2.342-3.521,4.994-7.51,4.994-12.988C72.096,39.092,62.6,29.595,50.925,29.595z   M58.871,85.934H43.689c-0.717,0-1.521-0.918-1.521-2.145c0-1.23,0.804-2.148,1.521-2.148h15.182c0.717,0,1.52,0.918,1.52,2.148  C60.391,85.016,59.588,85.934,58.871,85.934z M44.003,75.17h15.178c0.719,0,1.523,0.918,1.523,2.146s-0.805,2.146-1.523,2.146  H44.003c-0.72,0-1.523-0.918-1.523-2.146S43.284,75.17,44.003,75.17z M63.018,61.037c-0.977,1.469-1.984,2.986-2.783,4.594  c-1.193,2.396-1.742,4.279-1.969,5.695H44.718c-0.267-1.453-0.92-3.328-2.403-5.357c-0.397-0.543-0.862-1.141-1.364-1.785  c-2.657-3.408-6.296-8.074-6.296-13.417c0-8.97,7.3-16.267,16.271-16.267c8.969,0,16.266,7.297,16.266,16.267  C67.191,54.762,65.164,57.811,63.018,61.037z"/>
<path d="M51.203,24.942c1.129,0,2.043-0.915,2.043-2.043V10.709c0-1.128-0.914-2.043-2.043-2.043c-1.129,0-2.043,0.915-2.043,2.043  v12.189C49.16,24.027,50.074,24.942,51.203,24.942z"/>
<path d="M25.132,37.392l-10.559-6.094c-0.977-0.564-2.225-0.229-2.792,0.748c-0.563,0.978-0.229,2.228,0.749,2.792l10.555,6.094  c0.979,0.565,2.229,0.229,2.795-0.748C26.445,39.207,26.109,37.956,25.132,37.392z"/>
<path d="M90.623,32.046c-0.566-0.977-1.814-1.312-2.791-0.748l-10.559,6.094c-0.977,0.564-1.312,1.814-0.748,2.792  c0.566,0.977,1.816,1.312,2.795,0.748l10.555-6.094C90.854,34.273,91.188,33.023,90.623,32.046z"/>
<path d="M31.812,28.456c0.563,0.978,1.816,1.313,2.792,0.749c0.979-0.564,1.312-1.815,0.749-2.792l-6.096-10.557  c-0.563-0.977-1.814-1.312-2.792-0.748c-0.976,0.564-1.312,1.814-0.747,2.792L31.812,28.456z"/>
<path d="M67.801,29.205c0.977,0.564,2.229,0.229,2.793-0.749L76.688,17.9c0.564-0.978,0.229-2.228-0.748-2.792  c-0.977-0.564-2.229-0.229-2.791,0.748l-6.096,10.557C66.49,27.389,66.824,28.64,67.801,29.205z"/>
</svg>